<svg width="96" height="96" viewBox="0 0 96 96" fill="none" xmlns="http://www.w3.org/2000/svg">
<g clip-path="url(#clip0_4326_8930)">
<path d="M48 8C31.2 8 16 20.88 16 40.8C16 53.52 25.8 68.48 45.36 85.72C46.88 87.04 49.16 87.04 50.68 85.72C70.2 68.48 80 53.52 80 40.8C80 20.88 64.8 8 48 8ZM48 48C43.6 48 40 44.4 40 40C40 35.6 43.6 32 48 32C52.4 32 56 35.6 56 40C56 44.4 52.4 48 48 48Z" fill="black"/>
</g>
<defs>
<clipPath id="clip0_4326_8930">
<rect width="96" height="96" fill="white"/>
</clipPath>
</defs>
</svg>
