<svg width="96" height="96" viewBox="0 0 96 96" fill="none" xmlns="http://www.w3.org/2000/svg">
<g clip-path="url(#clip0_4327_9021)">
<path d="M76 12H72V8C72 5.8 70.2 4 68 4C65.8 4 64 5.8 64 8V12H32V8C32 5.8 30.2 4 28 4C25.8 4 24 5.8 24 8V12H20C15.56 12 12.04 15.6 12.04 20L12 76C12 80.4 15.56 84 20 84H76C80.4 84 84 80.4 84 76V20C84 15.6 80.4 12 76 12ZM72 76H24C21.8 76 20 74.2 20 72V32H76V72C76 74.2 74.2 76 72 76ZM32 40H44C46.2 40 48 41.8 48 44V56C48 58.2 46.2 60 44 60H32C29.8 60 28 58.2 28 56V44C28 41.8 29.8 40 32 40Z" fill="black"/>
</g>
<defs>
<clipPath id="clip0_4327_9021">
<rect width="96" height="96" fill="white"/>
</clipPath>
</defs>
</svg>
