<svg width="96" height="96" viewBox="0 0 96 96" fill="none" xmlns="http://www.w3.org/2000/svg">
<path d="M60 28C58.8667 28 57.9167 27.6167 57.15 26.85C56.3833 26.0833 56 25.1333 56 24C56 22.8667 56.3833 21.9167 57.15 21.15C57.9167 20.3833 58.8667 20 60 20H84C85.1333 20 86.0833 20.3833 86.85 21.15C87.6167 21.9167 88 22.8667 88 24C88 25.1333 87.6167 26.0833 86.85 26.85C86.0833 27.6167 85.1333 28 84 28H60ZM60 44C58.8667 44 57.9167 43.6167 57.15 42.85C56.3833 42.0833 56 41.1333 56 40C56 38.8667 56.3833 37.9167 57.15 37.15C57.9167 36.3833 58.8667 36 60 36H84C85.1333 36 86.0833 36.3833 86.85 37.15C87.6167 37.9167 88 38.8667 88 40C88 41.1333 87.6167 42.0833 86.85 42.85C86.0833 43.6167 85.1333 44 84 44H60ZM60 60C58.8667 60 57.9167 59.6167 57.15 58.85C56.3833 58.0833 56 57.1333 56 56C56 54.8667 56.3833 53.9167 57.15 53.15C57.9167 52.3833 58.8667 52 60 52H84C85.1333 52 86.0833 52.3833 86.85 53.15C87.6167 53.9167 88 54.8667 88 56C88 57.1333 87.6167 58.0833 86.85 58.85C86.0833 59.6167 85.1333 60 84 60H60ZM32 56C28.6667 56 25.8333 54.8333 23.5 52.5C21.1667 50.1667 20 47.3333 20 44C20 40.6667 21.1667 37.8333 23.5 35.5C25.8333 33.1667 28.6667 32 32 32C35.3333 32 38.1667 33.1667 40.5 35.5C42.8333 37.8333 44 40.6667 44 44C44 47.3333 42.8333 50.1667 40.5 52.5C38.1667 54.8333 35.3333 56 32 56ZM8 76V72.4C8 71 8.33333 69.6667 9 68.4C9.66667 67.1333 10.6 66.1333 11.8 65.4C14.8 63.6 17.9833 62.25 21.35 61.35C24.7167 60.45 28.2667 60 32 60C35.7333 60 39.2833 60.45 42.65 61.35C46.0167 62.25 49.2 63.6 52.2 65.4C53.4 66.1333 54.3333 67.1333 55 68.4C55.6667 69.6667 56 71 56 72.4V76C56 77.1333 55.6167 78.0833 54.85 78.85C54.0833 79.6167 53.1333 80 52 80H12C10.8667 80 9.91667 79.6167 9.15 78.85C8.38333 78.0833 8 77.1333 8 76ZM16.6 72H47.4C45.0667 70.6667 42.6 69.6667 40 69C37.4 68.3333 34.7333 68 32 68C29.2667 68 26.6 68.3333 24 69C21.4 69.6667 18.9333 70.6667 16.6 72ZM32 48C33.1333 48 34.0833 47.6167 34.85 46.85C35.6167 46.0833 36 45.1333 36 44C36 42.8667 35.6167 41.9167 34.85 41.15C34.0833 40.3833 33.1333 40 32 40C30.8667 40 29.9167 40.3833 29.15 41.15C28.3833 41.9167 28 42.8667 28 44C28 45.1333 28.3833 46.0833 29.15 46.85C29.9167 47.6167 30.8667 48 32 48Z" fill="black"/>
</svg>
